<svg version="1.2" xmlns="http://www.w3.org/2000/svg" viewBox="0 0 1571 295" width="1571" height="295">
	<title>orion-export-business-brochure-20230307-1 (1)-ai-svg</title>
	<defs>
		<clipPath clipPathUnits="userSpaceOnUse" id="cp1">
			<path d="m-764.65-947.29h4836.25v3414.44h-4836.25z"/>
		</clipPath>
		<clipPath clipPathUnits="userSpaceOnUse" id="cp2">
			<path d="m-764.65-947.29h4836.25v3414.44h-4836.25z"/>
		</clipPath>
		<clipPath clipPathUnits="userSpaceOnUse" id="cp3">
			<path d="m-764.65-947.29h4836.25v3414.44h-4836.25z"/>
		</clipPath>
	</defs>
	<style>
		.s0 { fill: #ed1c24 } 
	</style>
	<g id="Layer 1">
		<g id="&lt;Group&gt;">
			<g id="Clip-Path: &lt;Clip Group&gt;" clip-path="url(#cp1)">
				<g id="&lt;Clip Group&gt;">
					<g id="Clip-Path: &lt;Clip Group&gt;" clip-path="url(#cp2)">
						<g id="&lt;Clip Group&gt;">
							<g id="Clip-Path: &lt;Clip Group&gt;" clip-path="url(#cp3)">
								<g id="&lt;Clip Group&gt;">
									<path id="&lt;Path&gt;" class="s0" d="m394.6 50.6h-41.3l-14.4-43-13.2 43h-43.1l35.6 24.7-12 40.2 32.7-24.7 36.2 24.1-13.2-39.6z"/>
									<path id="&lt;Compound Path&gt;" fill-rule="evenodd" class="s0" d="m295.3 147.6c0 80.8-66.1 146.8-147.1 146.8-54.6 0-101.7-29.2-126.9-72.8-2.3-4.6-2.9-7.5-2.9-7.5-2.9-15.5 1.1-21.8 1.1-21.8l16.7-5.7-19-9.2c0 0-3.3-25.7-2.3-26.9-2.9 2.4-8.6 22.9-8.6 22.9-2.3-4.6-4-10.9-5.2-16.1 0-3.4-0.5-6.9-0.5-9.7 0-81.5 66-147.4 147.6-147.4 81 0 147.1 65.9 147.1 147.4zm-280.4 2.9q0 0 0-0.1 0 0.1 0 0.1zm46.6 92.3c9.2-2.9 16.6-8.6 16.6-8.6-8 0-14.3-1.2-20.7-2.9-2.3-6.3-5.1-12-7.4-15.5 0 0-1.7 5.2-3.5 12.1-9.7-4-14.9-8.1-14.9-8.1 4 7.5 8.6 13.2 12.6 17.3-1.1 3.4-1.7 6.8-1.7 9.7l10.3-1.1c0 0 9.2 10.9 14.4 14.3 0 0-2.3-8-5.7-17.2zm18.3-106.7c0 0-7.4-8.6-16.6-18.4 4-10.3 8-19.5 10.9-25.2 0 0-9.8 5.7-21.3 14.3-5.7-5.7-10.9-11.4-15.5-14.9 0 0 0 11.5 1.2 26.4-8.6 8.1-16.7 16.7-20.7 24.7 0 0 5.8-3.5 21.8-5.2 1.2 9.8 2.3 20.1 4.6 29.8 0 0 5.8-14.3 12.1-30.9 6.9-0.6 14.4-1.2 23.5-0.6zm47.7 96.4q-8.6 1.7-16.6 2.3l-5.8-13.8-3.4 14.3c-9.8 0.6-15.5 0-15.5 0 1.1 2.3 8 6.3 13.2 9.2l-3.5 14.9 12.1-9.2 13.8 8.6-6.9-14.9c6.9-5.1 12.6-11.4 12.6-11.4zm36.2-121.6c-4-5.8-12.6-15.5-21.2-25.8 5.7-7.5 12-16.1 16.6-24.1 0 0-13.2 2.8-29.8 8.6-11-12.7-20.2-23-20.2-23l0.6 29.3c-9.7 4-19.5 8-28.7 12.6 0 0 14.9 4 28.7 6.9l1.2 31.5 20.6-25.2zm90.8-6.3l-17.2-33.3c0 0 9.2-12.6 18.4-21.2 0 0-9.8-0.6-28.2 0.6l-16.6-32.2-8.1 34.5q-14.3 1.7-33.3 5.1l30.4 17.2-6.9 34.4 27.6-22.9zm-239.5 45.9z"/>
									<path id="&lt;Compound Path&gt;" fill-rule="evenodd" class="s0" d="m521 262.3c-71.1 0-128.6-50.9-128.6-113.9 0-62.9 57.5-113.8 128.6-113.8 71.2 0 128.7 50.9 128.7 113.8 0 63-57.5 113.9-128.7 113.9zm56.3-114.2c0-48.2-25.3-87.1-56.6-87.1-31.2 0-56.5 38.9-56.5 87.1 0 48.3 25.3 87.2 56.5 87.2 31.3 0 56.6-38.9 56.6-87.2z"/>
									<path id="&lt;Compound Path&gt;" fill-rule="evenodd" class="s0" d="m1115.3 262.3c-71 0-128.4-50.9-128.4-113.9 0-62.9 57.4-113.8 128.4-113.8 71 0 128.4 50.9 128.4 113.8 0 63-57.4 113.9-128.4 113.9zm56.6-114.2c0-48.2-25.3-87.1-56.6-87.1-31.3 0-56.6 38.9-56.6 87.1 0 48.3 25.3 87.2 56.6 87.2 31.3 0 56.6-38.9 56.6-87.2z"/>
									<path id="&lt;Path&gt;" class="s0" d="m933.5 34c-19.5 0-35.1 16.1-35.1 35.6v185.2h70.1v-185.2c0-19.5-15.5-35.6-35-35.6z"/>
									<path id="&lt;Path&gt;" class="s0" d="m873.7 102.3c1.8-63.1-90.7-63.1-90.7-63.1h-79.9c-17.8 2.3-31.6 16-31.6 35.5v180.7h66.7v-184.1c0-6.9 6.3-5.7 6.3-5.7h14.4c49.4 1.7 48.8 39.5 48.8 39.5 0.6 39.6-42 40.2-42 40.2h-12c-12.1 0.6-4 10.9-4 10.9v1.7l50.5 97.5h74.1l-59.2-94.1c66.1-6.8 58.6-59 58.6-59z"/>
									<path id="&lt;Path&gt;" class="s0" d="m1439.6 36.9c-9.8 0-17.3 8-17.3 17.8v92.9l-69.5-92.4c0 0-10.9-22.3-50.5-17.8 0 0-36.8 4.6-37.4 54v162.9h36.2v-160.6l118.4 160.6h37.3v-199.6c0-9.8-7.5-17.8-17.2-17.8z"/>
									<path id="&lt;Compound Path&gt;" fill-rule="evenodd" class="s0" d="m1527.2 110.3c-24 0-43.4-20-43.4-44.7 0-24.8 19.4-44.8 43.4-44.8 24 0 43.4 20 43.4 44.8 0 24.7-19.4 44.7-43.4 44.7zm-21.6-14.9v-59.7c-8.6 6.9-14.3 17.8-14.3 29.9 0 12 5.7 22.9 14.3 29.8zm21.9 7.4c8 0 14.9-2.8 21.2-6.8h-5.1q-0.6-1.2-0.6-2.3-0.6-1.2-0.6-4.6l-0.6-10.4q0-5.7-4-7.4-2.3-1.2-6.9-1.2h-17.2v25.9h-7.5c6.3 4 13.2 6.8 21.3 6.8zm36.2-37.2c0-20.7-16.1-37.3-36.2-37.3-8.1 0-15.5 2.8-21.9 7.4h26.5q6.9 0 10.9 2.3 8 3.5 8 13.8 0 5.7-2.3 9.2-2.3 3.4-5.7 5.1 3.4 1.7 5.1 4 1.8 2.3 1.8 7.5l0.5 8q0 3.5 0.6 5.2 0 1.1 0.6 2.3c7.5-6.9 12.1-16.7 12.1-27.5zm-32.2-2.3q5.2 0 8.6-2.3 2.9-2.3 2.9-8.1 0-6.3-4.6-8.6-2.3-1.7-6.3-1.1h-18.4v20.1z"/>
								</g>
							</g>
						</g>
					</g>
				</g>
			</g>
		</g>
	</g>
</svg>