<svg xmlns="http://www.w3.org/2000/svg" xmlns:xlink="http://www.w3.org/1999/xlink" viewBox="0 0 67.09 85.84"><defs><style>.a{fill:url(#a);}.b{fill:url(#b);}.c{fill:url(#c);}.d{fill:url(#d);}.e{fill:url(#e);}.f{fill:url(#f);}.g{fill:url(#g);}.h{fill:#1a1a1a;}</style><radialGradient id="a" cx="-6003.35" cy="3594.21" r="70.22" gradientTransform="matrix(0.14, 0, 0, 0.14, 877.22, -477.22)" gradientUnits="userSpaceOnUse"><stop offset="0" stop-color="#4495d1"/><stop offset="1" stop-color="#15256d"/></radialGradient><linearGradient id="b" x1="771.13" y1="-212.88" x2="800.46" y2="-225.38" gradientTransform="translate(-671.61 -392.48) rotate(45)" xlink:href="#a"/><linearGradient id="c" x1="812.22" y1="897.48" x2="841.55" y2="884.99" gradientTransform="translate(-1065.78 609.5) rotate(-75)" xlink:href="#a"/><linearGradient id="d" x1="-282.17" y1="311.3" x2="-252.84" y2="298.81" gradientTransform="translate(-126.54 414.66) rotate(165)" xlink:href="#a"/><linearGradient id="e" x1="12.35" y1="24.89" x2="25.65" y2="4.5" gradientTransform="matrix(1, 0, 0, 1, 0, 0)" xlink:href="#a"/><linearGradient id="f" x1="37.5" y1="53.99" x2="13.66" y2="56.42" gradientTransform="matrix(1, 0, 0, 1, 0, 0)" xlink:href="#a"/><linearGradient id="g" x1="52.86" y1="19.49" x2="57.72" y2="44.03" gradientTransform="matrix(1, 0, 0, 1, 0, 0)" xlink:href="#a"/></defs><path class="a" d="M39,38.34a7,7,0,1,1-.49-10A7,7,0,0,1,39,38.34Z"/><path class="b" d="M35.66,9.51a22.07,22.07,0,0,1,1.63,1.76A27.69,27.69,0,0,1,41.44,18a21.32,21.32,0,0,0,5.06.35h.3l.27,0A19.26,19.26,0,0,0,59.2,12.51l.42-.45c-.63-.76-1.29-1.51-2-2.23A33.67,33.67,0,0,0,13.7,6.68C24.05,1.67,31.21,5.13,35.66,9.51Z"/><path class="c" d="M11.84,43.68c.2-.8.45-1.56.71-2.29a27.74,27.74,0,0,1,3.74-7,21.5,21.5,0,0,0-2.23-4.56l-.16-.25a1.77,1.77,0,0,0-.16-.22A19.22,19.22,0,0,0,2.67,21.8l-.6-.15c-.34.94-.66,1.88-.93,2.86a33.68,33.68,0,0,0,19.23,39.6C10.86,57.66,10.27,49.73,11.84,43.68Z"/><path class="d" d="M53.43,47.26a21.64,21.64,0,0,1-2.34.53A27.56,27.56,0,0,1,43.2,48a21.35,21.35,0,0,0-2.84,4.21l-.13.26-.12.25a19.29,19.29,0,0,0-1,13.4c0,.19.11.39.17.59,1-.17,2-.37,2.94-.63A33.66,33.66,0,0,0,66.85,29.66C66,41.12,59.44,45.6,53.43,47.26Z"/><path class="e" d="M13.7,6.68A31.85,31.85,0,0,0,2.59,20.43,20.14,20.14,0,0,1,17.57,34c.92-.59,3.77-2.84,5.69-9,2.31-7.5,6.7-13,12.4-15.43C35.66,9.51,28.45-.78,13.7,6.68Z"/><path class="f" d="M36.84,60.65a20.05,20.05,0,0,1,5.27-13.57l0-.07c-.69-.74-3.1-2.55-9.3-1.14-7.65,1.75-16.09,1.54-21-2.19,0,0-5.3,11.39,8.53,20.43a31.87,31.87,0,0,0,17.45,2.76A19.2,19.2,0,0,1,36.84,60.65Z"/><path class="g" d="M60.51,13.16a19.9,19.9,0,0,1-14.89,6.75,22,22,0,0,1-4.42-.47h-.08c-.28,1-.52,4,3.7,8.54,5.33,5.75,9.37,13.16,8.61,19.29,0,0,12.51-1.1,13.42-17.6A31.86,31.86,0,0,0,60.51,13.16Z"/><path class="h" d="M6.1,85.7H4.27V77.18H7.21c2.14,0,3.49.89,3.49,2.85S9.31,83,7,83H6.1Zm0-4.27h1c1.09,0,1.75-.43,1.75-1.33s-.62-1.31-1.74-1.31h-1Z"/><path class="h" d="M12,81.44C12,78.58,13.77,77,16.11,77c2.63,0,4.15,1.67,4.15,4.41,0,3-1.76,4.4-4.1,4.4S12,84.3,12,81.44Zm6.3,0c0-1.94-.89-2.8-2.22-2.8s-2.15.9-2.15,2.8,1,2.8,2.26,2.8S18.33,83.35,18.33,81.44Z"/><path class="h" d="M28.38,85.35a4.43,4.43,0,0,1-2.3.49,4,4,0,0,1-4.32-4.29c0-2.93,1.72-4.52,4.5-4.52a5.28,5.28,0,0,1,2.14.41L28,79a5.13,5.13,0,0,0-1.48-.26,2.72,2.72,0,1,0,0,5.44A4.3,4.3,0,0,0,28,83.82Z"/><path class="h" d="M35.06,83.42H31.43L30.6,85.7H29.49l3.25-8.52h1.09L37,85.7H35.88Zm-3.28-1h2.93l-1.42-4h0Z"/><path class="h" d="M40.82,85.7H39.73V78.2H37.21v-1h6.13v1H40.82Z"/><path class="h" d="M44.5,81.44c0-2.73,1.57-4.38,3.82-4.38,2.53,0,3.89,1.8,3.89,4.38,0,2.89-1.63,4.38-3.85,4.38S44.5,84.14,44.5,81.44Zm6.54,0c0-2.34-1-3.36-2.72-3.36-1.5,0-2.65,1.08-2.65,3.36s1.12,3.36,2.79,3.36S51,83.64,51,81.44Z"/><path class="h" d="M62.79,85.7h-1.1L61.17,79,59,85.7H57.87l-2.14-6.63L55.2,85.7H54.1l.73-8.52h1.34l2.3,7.32,2.25-7.32h1.34Z"/></svg>